<?xml version="1.0" encoding="UTF-8" standalone="no"?>
<!-- Created with Inkscape (http://www.inkscape.org/) -->

<svg
   width="10mm"
   height="10mm"
   viewBox="0 0 10 10"
   version="1.1"
   id="svg1"
   xml:space="preserve"
   sodipodi:docname="flip.svg"
   inkscape:version="1.4.2 (f4327f4, 2025-05-13)"
   xmlns:inkscape="http://www.inkscape.org/namespaces/inkscape"
   xmlns:sodipodi="http://sodipodi.sourceforge.net/DTD/sodipodi-0.dtd"
   xmlns="http://www.w3.org/2000/svg"
   xmlns:svg="http://www.w3.org/2000/svg"><sodipodi:namedview
     id="namedview1"
     pagecolor="#505050"
     bordercolor="#eeeeee"
     borderopacity="1"
     inkscape:showpageshadow="0"
     inkscape:pageopacity="0"
     inkscape:pagecheckerboard="0"
     inkscape:deskcolor="#505050"
     inkscape:document-units="mm"
     inkscape:zoom="21.833248"
     inkscape:cx="9.8473667"
     inkscape:cy="18.709997"
     inkscape:window-width="2560"
     inkscape:window-height="1369"
     inkscape:window-x="-8"
     inkscape:window-y="-8"
     inkscape:window-maximized="1"
     inkscape:current-layer="svg1" /><defs
     id="defs1" /><g
     id="g1"
     transform="matrix(1.1737735,0,0,1.1737735,-0.86885936,-0.86886749)"><path
       id="rect2-5"
       style="baseline-shift:baseline;display:inline;overflow:visible;opacity:1;vector-effect:none;fill:#dedede;stroke-dasharray:1.125, 0.750001;stroke-dashoffset:1.275;enable-background:accumulate;stop-color:#000000;stop-opacity:1"
       d="m 7.8201945,7.1230794 -0.011369,0.040824 -0.01602,0.047026 -0.015503,0.042891 -0.021187,0.044958 -0.021704,0.040824 -0.023254,0.041341 -0.025838,0.040824 -0.026872,0.037207 -0.029456,0.037207 -0.029456,0.037207 -0.033073,0.033073 -0.033073,0.033073 -0.037207,0.029456 -0.037207,0.029456 -0.037207,0.026872 -0.040824,0.025838 -0.041341,0.023254 -0.013436,0.00775 0.3415812,0.6681763 0.029456,-0.01602 0.072347,-0.040824 0.07028,-0.044958 0.068213,-0.048576 0.066663,-0.05116 0.062528,-0.05426 0.060461,-0.056844 0.056844,-0.060461 0.05426,-0.062528 0.05116,-0.066663 0.048576,-0.068213 0.044958,-0.07028 0.040824,-0.072347 0.039274,-0.074414 0.033073,-0.075964 0.031523,-0.080099 0.027389,-0.080099 0.01757,-0.060461 z" /><path
       id="path11"
       style="baseline-shift:baseline;display:inline;overflow:visible;opacity:1;vector-effect:none;fill:#dedede;stroke-dasharray:1.125, 0.750001;stroke-dashoffset:1.275;enable-background:accumulate;stop-color:#000000;stop-opacity:1"
       d="M 7.8532674,5.3536784 V 6.4786743 H 8.6036092 V 5.3536784 Z" /><path
       id="path10"
       style="baseline-shift:baseline;display:inline;overflow:visible;opacity:1;vector-effect:none;fill:#dedede;stroke-dasharray:1.125, 0.750001;stroke-dashoffset:1.275;enable-background:accumulate;stop-color:#000000;stop-opacity:1"
       d="M 7.8532674,3.4783407 V 4.6033366 H 8.6036092 V 3.4783407 Z" /><path
       id="path9"
       style="baseline-shift:baseline;display:inline;overflow:visible;opacity:1;vector-effect:none;fill:#dedede;stroke-dasharray:1.125, 0.750001;stroke-dashoffset:1.275;enable-background:accumulate;stop-color:#000000;stop-opacity:1"
       d="m 7.6134888,1.5626953 -0.3090251,0.6831624 0.03514,0.019637 0.041341,0.023771 0.040824,0.025321 0.037207,0.027388 0.037207,0.028939 0.037207,0.029456 0.033073,0.033073 0.033073,0.03359 0.029456,0.03669 0.029456,0.037207 0.026872,0.037207 0.025838,0.040824 0.023254,0.041341 0.021704,0.040824 0.021187,0.044958 0.015503,0.042892 0.01602,0.047026 0.7224365,-0.2030884 -0.00568,-0.019637 -0.027389,-0.080099 -0.031523,-0.080099 -0.033073,-0.075964 -0.039274,-0.074414 -0.040824,-0.072347 -0.044958,-0.07028 -0.048576,-0.068213 -0.05116,-0.066663 -0.05426,-0.062528 -0.056844,-0.060461 -0.060461,-0.056327 -0.062528,-0.054777 -0.066663,-0.050643 -0.068213,-0.049093 -0.07028,-0.044959 -0.072347,-0.040824 -0.074414,-0.039274 z" /><path
       id="path8"
       style="baseline-shift:baseline;display:inline;overflow:visible;opacity:1;vector-effect:none;fill:#dedede;stroke-dasharray:1.125, 0.750001;stroke-dashoffset:1.275;enable-background:accumulate;stop-color:#000000;stop-opacity:1"
       d="M 5.7500366,2.146639 H 6.7282715 V 1.3962972 H 5.7500366 Z" /><path
       id="path6"
       style="baseline-shift:baseline;display:inline;overflow:visible;opacity:1;vector-effect:none;fill:#dedede;stroke-dasharray:1.125, 0.750001;stroke-dashoffset:1.275;enable-background:accumulate;stop-color:#000000;stop-opacity:1"
       d="M 5.7500366,8.6036092 H 6.7716797 V 7.8532674 H 5.7500366 Z" /><path
       id="path13"
       style="baseline-shift:baseline;display:inline;overflow:visible;opacity:1;vector-effect:none;fill:#dedede;enable-background:accumulate;stop-color:#000000;stop-opacity:1"
       d="M 4.2498698,1.3962972 H 3.129008 c -0.9531844,0 -1.7327108,0.7795264 -1.7327108,1.7327108 v 3.7418904 c 0,0.9531844 0.7795264,1.7327108 1.7327108,1.7327108 H 4.2498698 V 7.8532674 H 3.129008 c -0.5506568,0 -0.982369,-0.4317122 -0.982369,-0.982369 V 3.129008 c 0,-0.5506568 0.4317122,-0.982369 0.982369,-0.982369 h 1.1208618 z" /><path
       style="baseline-shift:baseline;display:inline;overflow:visible;opacity:1;vector-effect:none;fill:#dedede;enable-background:accumulate;stop-color:#000000;stop-opacity:1"
       d="M 4.625,0.74023437 V 9.2597656 h 0.75 V 0.74023437 Z"
       id="path2" /></g></svg>
