<?xml version="1.0" encoding="UTF-8" standalone="no"?>
<!-- Created with Inkscape (http://www.inkscape.org/) -->

<svg
   width="10mm"
   height="10mm"
   viewBox="0 0 10 10"
   version="1.1"
   id="svg1"
   xml:space="preserve"
   sodipodi:docname="right.svg"
   inkscape:version="1.4.2 (f4327f4, 2025-05-13)"
   xmlns:inkscape="http://www.inkscape.org/namespaces/inkscape"
   xmlns:sodipodi="http://sodipodi.sourceforge.net/DTD/sodipodi-0.dtd"
   xmlns="http://www.w3.org/2000/svg"
   xmlns:svg="http://www.w3.org/2000/svg"><sodipodi:namedview
     id="namedview1"
     pagecolor="#505050"
     bordercolor="#eeeeee"
     borderopacity="1"
     inkscape:showpageshadow="0"
     inkscape:pageopacity="0"
     inkscape:pagecheckerboard="0"
     inkscape:deskcolor="#505050"
     inkscape:document-units="mm"
     inkscape:zoom="21.833248"
     inkscape:cx="9.8473667"
     inkscape:cy="18.709997"
     inkscape:window-width="2560"
     inkscape:window-height="1369"
     inkscape:window-x="2552"
     inkscape:window-y="-8"
     inkscape:window-maximized="1"
     inkscape:current-layer="svg1" /><defs
     id="defs1" /><g
     id="path1"
     style="opacity:1"
     transform="matrix(-1.1751291,0,0,1.1751291,-1.3450449,-0.8970862)"><path
       style="baseline-shift:baseline;display:inline;overflow:visible;vector-effect:none;fill:#dedede;enable-background:accumulate;stop-color:#000000;stop-opacity:1"
       d="M -4.5039062,1.7714844 C -5.3115227,1.7143104 -6.1377216,1.9279083 -6.8378906,2.4199219 -8.2382287,3.403949 -8.7579002,5.2418668 -8.078125,6.8125 L -7.2070312,6.4355469 C -7.710138,5.2731093 -7.3294421,3.9236494 -6.2929687,3.1953125 c 1.0364733,-0.7283369 2.4339376,-0.6287987 3.3574218,0.2382813 0.9234843,0.8670799 1.1111257,2.2559648 0.4492188,3.3359374 L -1.6757812,7.265625 C -0.78145653,5.8064376 -1.0374497,3.913687 -2.2851563,2.7421875 -2.9090095,2.1564378 -3.6962898,1.8286583 -4.5039062,1.7714844 Z"
       id="path9" /><g
       id="g6"><g
         id="path6"
         style="opacity:1"><path
           style="baseline-shift:baseline;display:inline;overflow:visible;vector-effect:none;fill:#dedede;fill-rule:evenodd;enable-background:accumulate;stop-color:#000000;stop-opacity:1"
           d="M -6.9891131,8.1334565 -9.2760747,6.4370221 -6.6605355,5.3050082 Z"
           id="path7" /><path
           style="baseline-shift:baseline;display:inline;overflow:visible;vector-effect:none;fill:#dedede;fill-rule:evenodd;enable-background:accumulate;stop-color:#000000;stop-opacity:1"
           d="m -6.4335937,5 -3.2207032,1.3925781 2.8164063,2.0898438 z M -6.8867187,5.609375 -7.140625,7.7851562 -8.8984375,6.4804687 Z"
           id="path8" /></g></g></g></svg>
